<mxfile host="app.diagrams.net" modified="2023-08-10T05:55:05.541Z" agent="Mozilla/5.0 (Windows NT 10.0; Win64; x64; rv:109.0) Gecko/20100101 Firefox/116.0" etag="lj0o_7kAY4gTIdDnbV6u" version="21.6.6" type="github">
  <diagram name="Page-1" id="f8O5PBTYMsSwomqxqACd">
    <mxGraphModel dx="1615" dy="1971" grid="1" gridSize="10" guides="1" tooltips="1" connect="1" arrows="1" fold="1" page="1" pageScale="1" pageWidth="850" pageHeight="1100" math="0" shadow="0">
      <root>
        <mxCell id="0" />
        <mxCell id="1" parent="0" />
        <mxCell id="pwD5tgcm4PId_Z6GZiqn-26" value="" style="edgeStyle=orthogonalEdgeStyle;rounded=0;orthogonalLoop=1;jettySize=auto;html=1;" parent="1" target="pwD5tgcm4PId_Z6GZiqn-25" edge="1">
          <mxGeometry relative="1" as="geometry">
            <mxPoint x="310" y="70" as="sourcePoint" />
          </mxGeometry>
        </mxCell>
        <mxCell id="pwD5tgcm4PId_Z6GZiqn-24" value="Start" style="ellipse;whiteSpace=wrap;html=1;" parent="1" vertex="1">
          <mxGeometry x="230" y="30" width="80" height="80" as="geometry" />
        </mxCell>
        <mxCell id="pwD5tgcm4PId_Z6GZiqn-30" value="" style="edgeStyle=orthogonalEdgeStyle;rounded=0;orthogonalLoop=1;jettySize=auto;html=1;" parent="1" source="pwD5tgcm4PId_Z6GZiqn-25" edge="1">
          <mxGeometry relative="1" as="geometry">
            <mxPoint x="570" y="70" as="targetPoint" />
          </mxGeometry>
        </mxCell>
        <mxCell id="pwD5tgcm4PId_Z6GZiqn-25" value="Document Input and Image Capture" style="whiteSpace=wrap;html=1;" parent="1" vertex="1">
          <mxGeometry x="370" y="40" width="120" height="60" as="geometry" />
        </mxCell>
        <mxCell id="pwD5tgcm4PId_Z6GZiqn-46" value="" style="edgeStyle=orthogonalEdgeStyle;rounded=0;orthogonalLoop=1;jettySize=auto;html=1;" parent="1" source="pwD5tgcm4PId_Z6GZiqn-43" target="pwD5tgcm4PId_Z6GZiqn-45" edge="1">
          <mxGeometry relative="1" as="geometry" />
        </mxCell>
        <mxCell id="pwD5tgcm4PId_Z6GZiqn-43" value="&lt;div&gt;Postprocessing&lt;/div&gt;" style="whiteSpace=wrap;html=1;" parent="1" vertex="1">
          <mxGeometry x="1210" y="40" width="120" height="60" as="geometry" />
        </mxCell>
        <mxCell id="pwD5tgcm4PId_Z6GZiqn-95" value="" style="edgeStyle=orthogonalEdgeStyle;rounded=0;orthogonalLoop=1;jettySize=auto;html=1;" parent="1" source="pwD5tgcm4PId_Z6GZiqn-45" target="pwD5tgcm4PId_Z6GZiqn-94" edge="1">
          <mxGeometry relative="1" as="geometry" />
        </mxCell>
        <mxCell id="pwD5tgcm4PId_Z6GZiqn-45" value="&lt;div&gt;Text Convertion&lt;/div&gt;and Output" style="whiteSpace=wrap;html=1;" parent="1" vertex="1">
          <mxGeometry x="1410" y="40" width="120" height="60" as="geometry" />
        </mxCell>
        <mxCell id="pwD5tgcm4PId_Z6GZiqn-48" value="" style="endArrow=none;dashed=1;html=1;rounded=0;entryX=0;entryY=1;entryDx=0;entryDy=0;exitX=0;exitY=0;exitDx=0;exitDy=0;" parent="1" source="pwD5tgcm4PId_Z6GZiqn-50" target="pwD5tgcm4PId_Z6GZiqn-43" edge="1">
          <mxGeometry width="50" height="50" relative="1" as="geometry">
            <mxPoint x="850" y="160" as="sourcePoint" />
            <mxPoint x="1210" y="130" as="targetPoint" />
          </mxGeometry>
        </mxCell>
        <mxCell id="pwD5tgcm4PId_Z6GZiqn-49" value="" style="endArrow=none;dashed=1;html=1;rounded=0;entryX=1;entryY=1;entryDx=0;entryDy=0;exitX=1;exitY=0;exitDx=0;exitDy=0;" parent="1" source="pwD5tgcm4PId_Z6GZiqn-50" target="pwD5tgcm4PId_Z6GZiqn-43" edge="1">
          <mxGeometry width="50" height="50" relative="1" as="geometry">
            <mxPoint x="1480" y="160" as="sourcePoint" />
            <mxPoint x="1360" y="110" as="targetPoint" />
          </mxGeometry>
        </mxCell>
        <mxCell id="pwD5tgcm4PId_Z6GZiqn-50" value="" style="rounded=0;whiteSpace=wrap;html=1;" parent="1" vertex="1">
          <mxGeometry x="720" y="200" width="760" height="260" as="geometry" />
        </mxCell>
        <mxCell id="pwD5tgcm4PId_Z6GZiqn-66" value="" style="edgeStyle=orthogonalEdgeStyle;rounded=0;orthogonalLoop=1;jettySize=auto;html=1;" parent="1" source="pwD5tgcm4PId_Z6GZiqn-52" target="pwD5tgcm4PId_Z6GZiqn-65" edge="1">
          <mxGeometry relative="1" as="geometry" />
        </mxCell>
        <mxCell id="pwD5tgcm4PId_Z6GZiqn-52" value="Preprocessing" style="whiteSpace=wrap;html=1;" parent="1" vertex="1">
          <mxGeometry x="570" y="40" width="120" height="60" as="geometry" />
        </mxCell>
        <mxCell id="pwD5tgcm4PId_Z6GZiqn-54" value="" style="endArrow=none;dashed=1;html=1;rounded=0;entryX=0;entryY=1;entryDx=0;entryDy=0;exitX=0;exitY=0;exitDx=0;exitDy=0;" parent="1" source="pwD5tgcm4PId_Z6GZiqn-57" target="pwD5tgcm4PId_Z6GZiqn-52" edge="1">
          <mxGeometry width="50" height="50" relative="1" as="geometry">
            <mxPoint x="520" y="160" as="sourcePoint" />
            <mxPoint x="1220" y="110" as="targetPoint" />
          </mxGeometry>
        </mxCell>
        <mxCell id="pwD5tgcm4PId_Z6GZiqn-56" value="" style="endArrow=none;dashed=1;html=1;rounded=0;entryX=0;entryY=1;entryDx=0;entryDy=0;exitX=1;exitY=0;exitDx=0;exitDy=0;" parent="1" source="pwD5tgcm4PId_Z6GZiqn-57" edge="1">
          <mxGeometry width="50" height="50" relative="1" as="geometry">
            <mxPoint x="680" y="160" as="sourcePoint" />
            <mxPoint x="690" y="100" as="targetPoint" />
          </mxGeometry>
        </mxCell>
        <mxCell id="pwD5tgcm4PId_Z6GZiqn-57" value="" style="rounded=0;whiteSpace=wrap;html=1;" parent="1" vertex="1">
          <mxGeometry x="480" y="140" width="200" height="100" as="geometry" />
        </mxCell>
        <mxCell id="pwD5tgcm4PId_Z6GZiqn-58" value="Resizing" style="rounded=0;whiteSpace=wrap;html=1;" parent="1" vertex="1">
          <mxGeometry x="490" y="150" width="80" height="20" as="geometry" />
        </mxCell>
        <mxCell id="pwD5tgcm4PId_Z6GZiqn-59" value="Cropping" style="rounded=0;whiteSpace=wrap;html=1;" parent="1" vertex="1">
          <mxGeometry x="590" y="150" width="80" height="20" as="geometry" />
        </mxCell>
        <mxCell id="pwD5tgcm4PId_Z6GZiqn-61" value="Segmentation" style="rounded=0;whiteSpace=wrap;html=1;" parent="1" vertex="1">
          <mxGeometry x="490" y="180" width="80" height="20" as="geometry" />
        </mxCell>
        <mxCell id="pwD5tgcm4PId_Z6GZiqn-62" value="Normalization" style="rounded=0;whiteSpace=wrap;html=1;" parent="1" vertex="1">
          <mxGeometry x="590" y="180" width="80" height="20" as="geometry" />
        </mxCell>
        <mxCell id="pwD5tgcm4PId_Z6GZiqn-68" value="" style="edgeStyle=orthogonalEdgeStyle;rounded=0;orthogonalLoop=1;jettySize=auto;html=1;" parent="1" source="pwD5tgcm4PId_Z6GZiqn-65" target="pwD5tgcm4PId_Z6GZiqn-67" edge="1">
          <mxGeometry relative="1" as="geometry" />
        </mxCell>
        <mxCell id="pwD5tgcm4PId_Z6GZiqn-65" value="Feature Mapping and Extraction" style="whiteSpace=wrap;html=1;" parent="1" vertex="1">
          <mxGeometry x="770" y="40" width="120" height="60" as="geometry" />
        </mxCell>
        <mxCell id="pwD5tgcm4PId_Z6GZiqn-70" value="" style="edgeStyle=orthogonalEdgeStyle;rounded=0;orthogonalLoop=1;jettySize=auto;html=1;" parent="1" source="pwD5tgcm4PId_Z6GZiqn-67" target="pwD5tgcm4PId_Z6GZiqn-43" edge="1">
          <mxGeometry relative="1" as="geometry" />
        </mxCell>
        <mxCell id="pwD5tgcm4PId_Z6GZiqn-67" value="Text Recognition" style="whiteSpace=wrap;html=1;" parent="1" vertex="1">
          <mxGeometry x="970" y="40" width="150" height="60" as="geometry" />
        </mxCell>
        <mxCell id="pwD5tgcm4PId_Z6GZiqn-69" value="Noise Reduction and Sharpening" style="rounded=0;whiteSpace=wrap;html=1;" parent="1" vertex="1">
          <mxGeometry x="490" y="210" width="180" height="20" as="geometry" />
        </mxCell>
        <mxCell id="pwD5tgcm4PId_Z6GZiqn-73" value="" style="edgeStyle=orthogonalEdgeStyle;rounded=0;orthogonalLoop=1;jettySize=auto;html=1;" parent="1" source="pwD5tgcm4PId_Z6GZiqn-71" target="pwD5tgcm4PId_Z6GZiqn-72" edge="1">
          <mxGeometry relative="1" as="geometry" />
        </mxCell>
        <mxCell id="pwD5tgcm4PId_Z6GZiqn-71" value="Recognizing Arabic Language" style="whiteSpace=wrap;html=1;" parent="1" vertex="1">
          <mxGeometry x="730" y="210" width="120" height="60" as="geometry" />
        </mxCell>
        <mxCell id="pwD5tgcm4PId_Z6GZiqn-75" value="" style="edgeStyle=orthogonalEdgeStyle;rounded=0;orthogonalLoop=1;jettySize=auto;html=1;" parent="1" source="pwD5tgcm4PId_Z6GZiqn-72" target="pwD5tgcm4PId_Z6GZiqn-74" edge="1">
          <mxGeometry relative="1" as="geometry" />
        </mxCell>
        <mxCell id="pwD5tgcm4PId_Z6GZiqn-72" value="Loading Arabic Alphabet and Lexicon" style="whiteSpace=wrap;html=1;" parent="1" vertex="1">
          <mxGeometry x="930" y="210" width="120" height="60" as="geometry" />
        </mxCell>
        <mxCell id="pwD5tgcm4PId_Z6GZiqn-77" value="" style="edgeStyle=orthogonalEdgeStyle;rounded=0;orthogonalLoop=1;jettySize=auto;html=1;" parent="1" source="pwD5tgcm4PId_Z6GZiqn-74" target="pwD5tgcm4PId_Z6GZiqn-76" edge="1">
          <mxGeometry relative="1" as="geometry" />
        </mxCell>
        <mxCell id="pwD5tgcm4PId_Z6GZiqn-74" value="&lt;div&gt;Loading Scanned&lt;/div&gt;&lt;div&gt;Text&lt;/div&gt;" style="whiteSpace=wrap;html=1;" parent="1" vertex="1">
          <mxGeometry x="1130" y="210" width="120" height="60" as="geometry" />
        </mxCell>
        <mxCell id="pwD5tgcm4PId_Z6GZiqn-81" value="" style="edgeStyle=orthogonalEdgeStyle;rounded=0;orthogonalLoop=1;jettySize=auto;html=1;" parent="1" source="pwD5tgcm4PId_Z6GZiqn-76" target="pwD5tgcm4PId_Z6GZiqn-80" edge="1">
          <mxGeometry relative="1" as="geometry">
            <Array as="points">
              <mxPoint x="1390" y="280" />
              <mxPoint x="792" y="280" />
            </Array>
          </mxGeometry>
        </mxCell>
        <mxCell id="pwD5tgcm4PId_Z6GZiqn-76" value="Segmenting Tokens (Words) as matrices for each token" style="whiteSpace=wrap;html=1;" parent="1" vertex="1">
          <mxGeometry x="1330" y="210" width="120" height="60" as="geometry" />
        </mxCell>
        <mxCell id="pwD5tgcm4PId_Z6GZiqn-83" value="" style="edgeStyle=orthogonalEdgeStyle;rounded=0;orthogonalLoop=1;jettySize=auto;html=1;" parent="1" source="pwD5tgcm4PId_Z6GZiqn-80" target="pwD5tgcm4PId_Z6GZiqn-82" edge="1">
          <mxGeometry relative="1" as="geometry" />
        </mxCell>
        <mxCell id="pwD5tgcm4PId_Z6GZiqn-80" value="Comparing between Tokens in Text and in Lexicon" style="whiteSpace=wrap;html=1;" parent="1" vertex="1">
          <mxGeometry x="730" y="300" width="117" height="60" as="geometry" />
        </mxCell>
        <mxCell id="pwD5tgcm4PId_Z6GZiqn-85" value="" style="edgeStyle=orthogonalEdgeStyle;rounded=0;orthogonalLoop=1;jettySize=auto;html=1;" parent="1" source="pwD5tgcm4PId_Z6GZiqn-82" target="pwD5tgcm4PId_Z6GZiqn-84" edge="1">
          <mxGeometry relative="1" as="geometry" />
        </mxCell>
        <mxCell id="pwD5tgcm4PId_Z6GZiqn-82" value="Doing necessary operations (Deletions, Insertions, Replacement, Transposes)" style="whiteSpace=wrap;html=1;" parent="1" vertex="1">
          <mxGeometry x="927" y="300" width="163" height="60" as="geometry" />
        </mxCell>
        <mxCell id="pwD5tgcm4PId_Z6GZiqn-87" value="" style="edgeStyle=orthogonalEdgeStyle;rounded=0;orthogonalLoop=1;jettySize=auto;html=1;" parent="1" source="pwD5tgcm4PId_Z6GZiqn-84" target="pwD5tgcm4PId_Z6GZiqn-86" edge="1">
          <mxGeometry relative="1" as="geometry" />
        </mxCell>
        <mxCell id="pwD5tgcm4PId_Z6GZiqn-84" value="&lt;div&gt;Repeating operations if necessary (i.e.&amp;nbsp;&lt;/div&gt;&lt;div&gt;more than 1 type)&lt;/div&gt;" style="whiteSpace=wrap;html=1;" parent="1" vertex="1">
          <mxGeometry x="1130" y="300" width="128.5" height="60" as="geometry" />
        </mxCell>
        <mxCell id="pwD5tgcm4PId_Z6GZiqn-89" value="" style="edgeStyle=orthogonalEdgeStyle;rounded=0;orthogonalLoop=1;jettySize=auto;html=1;" parent="1" source="pwD5tgcm4PId_Z6GZiqn-86" target="pwD5tgcm4PId_Z6GZiqn-88" edge="1">
          <mxGeometry relative="1" as="geometry">
            <Array as="points">
              <mxPoint x="1390" y="370" />
              <mxPoint x="790" y="370" />
            </Array>
          </mxGeometry>
        </mxCell>
        <mxCell id="pwD5tgcm4PId_Z6GZiqn-86" value="Merging segmented tokens" style="whiteSpace=wrap;html=1;" parent="1" vertex="1">
          <mxGeometry x="1330" y="300" width="120" height="60" as="geometry" />
        </mxCell>
        <mxCell id="pwD5tgcm4PId_Z6GZiqn-91" value="" style="edgeStyle=orthogonalEdgeStyle;rounded=0;orthogonalLoop=1;jettySize=auto;html=1;" parent="1" source="pwD5tgcm4PId_Z6GZiqn-88" target="pwD5tgcm4PId_Z6GZiqn-90" edge="1">
          <mxGeometry relative="1" as="geometry" />
        </mxCell>
        <mxCell id="pwD5tgcm4PId_Z6GZiqn-88" value="Comparing with Context" style="whiteSpace=wrap;html=1;" parent="1" vertex="1">
          <mxGeometry x="730" y="390" width="120" height="60" as="geometry" />
        </mxCell>
        <mxCell id="pwD5tgcm4PId_Z6GZiqn-90" value="Finalization" style="whiteSpace=wrap;html=1;" parent="1" vertex="1">
          <mxGeometry x="930" y="390" width="120" height="60" as="geometry" />
        </mxCell>
        <mxCell id="pwD5tgcm4PId_Z6GZiqn-94" value="End" style="ellipse;whiteSpace=wrap;html=1;" parent="1" vertex="1">
          <mxGeometry x="1630" y="30" width="80" height="80" as="geometry" />
        </mxCell>
        <mxCell id="BDxnOHgKAX49u-8Eq2Gk-1" value="" style="endArrow=none;dashed=1;html=1;rounded=0;exitX=0;exitY=0;exitDx=0;exitDy=0;entryX=0;entryY=1;entryDx=0;entryDy=0;" edge="1" parent="1" source="pwD5tgcm4PId_Z6GZiqn-25" target="BDxnOHgKAX49u-8Eq2Gk-2">
          <mxGeometry width="50" height="50" relative="1" as="geometry">
            <mxPoint x="250" y="220" as="sourcePoint" />
            <mxPoint x="320" y="-50" as="targetPoint" />
          </mxGeometry>
        </mxCell>
        <mxCell id="BDxnOHgKAX49u-8Eq2Gk-2" value="easyOCR" style="rounded=0;whiteSpace=wrap;html=1;" vertex="1" parent="1">
          <mxGeometry x="570" y="-80" width="120" height="60" as="geometry" />
        </mxCell>
        <mxCell id="BDxnOHgKAX49u-8Eq2Gk-3" value="" style="endArrow=none;dashed=1;html=1;rounded=0;entryX=1;entryY=0;entryDx=0;entryDy=0;exitX=1;exitY=1;exitDx=0;exitDy=0;" edge="1" parent="1" source="BDxnOHgKAX49u-8Eq2Gk-2" target="pwD5tgcm4PId_Z6GZiqn-67">
          <mxGeometry width="50" height="50" relative="1" as="geometry">
            <mxPoint x="640" y="-20" as="sourcePoint" />
            <mxPoint x="730" y="-60" as="targetPoint" />
          </mxGeometry>
        </mxCell>
      </root>
    </mxGraphModel>
  </diagram>
</mxfile>
